<svg version="1.1" id="Layer_1" xmlns="http://www.w3.org/2000/svg" xmlns:xlink="http://www.w3.org/1999/xlink" x="0px" y="0px"
	 width="100%" viewBox="0 0 765 765" enable-background="new 0 0 765 765" xml:space="preserve">
<path fill="#FFFFFF" opacity="1.000000" stroke="none" 
	d="
M502.000000,766.000000 
	C334.666656,766.000000 167.833328,766.000000 1.000000,766.000000 
	C1.000000,511.000000 1.000000,256.000000 1.000000,1.000000 
	C256.000000,1.000000 511.000000,1.000000 766.000000,1.000000 
	C766.000000,256.000000 766.000000,511.000000 766.000000,766.000000 
	C678.166687,766.000000 590.333313,766.000000 502.000000,766.000000 
M392.290222,474.174438 
	C391.828613,472.260406 391.918671,469.905182 390.804993,468.512573 
	C387.002747,463.758057 383.184631,458.872345 378.615906,454.908936 
	C372.026367,449.192657 364.774597,444.239777 358.289795,438.413239 
	C359.949585,433.899750 363.376556,433.274384 367.783752,433.283783 
	C427.079224,433.410034 486.375336,433.271149 545.670471,433.460114 
	C556.069153,433.493225 564.356140,429.685913 570.187439,421.554352 
	C574.490540,415.553864 578.312073,408.919250 580.884277,402.021301 
	C588.097656,382.677673 587.780334,362.508453 585.393188,342.372040 
	C583.807312,328.994385 579.563354,316.437439 571.161621,305.628113 
	C564.563293,297.138947 556.316650,292.562347 545.032959,292.767212 
	C520.390015,293.214600 495.733398,292.905609 471.082367,292.905609 
	C469.501862,292.905609 467.921326,292.905609 465.553253,292.905609 
	C467.108337,290.913452 468.033844,289.592499 469.093658,288.389893 
	C492.211395,262.156433 515.246826,235.849396 538.517212,209.751907 
	C549.307739,197.650391 559.429321,185.146591 566.184448,170.280655 
	C567.537048,167.303986 568.488220,164.041840 569.007690,160.812134 
	C569.954346,154.926056 567.662170,152.222794 561.064514,154.488098 
	C539.142029,162.015182 519.799194,174.052536 501.169006,187.475800 
	C493.900024,192.713196 486.689301,198.051971 479.192871,202.947769 
	C470.619843,208.546738 461.758362,213.704086 452.186218,219.215424 
	C449.765594,219.596344 446.966614,219.322769 444.987335,220.467087 
	C434.190643,226.709213 423.595673,233.300247 412.256958,239.952103 
	C394.268311,256.518951 376.211884,273.013550 358.371552,289.738647 
	C355.978455,291.982178 353.827820,292.971863 350.604156,292.966766 
	C296.466431,292.881134 242.326538,293.156769 188.192108,292.725433 
	C174.993469,292.620300 165.810074,298.080200 159.066864,308.494568 
	C155.847198,313.467133 153.166321,318.933167 151.129532,324.500610 
	C144.262146,343.272430 144.809036,362.789215 146.600388,382.245789 
	C147.754776,394.783905 151.607635,406.645203 158.645264,417.270996 
	C165.735703,427.976471 175.030365,434.311829 188.592712,433.475555 
	C197.719803,432.912811 206.909714,433.357849 216.071442,433.378601 
	C217.643143,433.382141 219.214523,433.519012 222.086807,433.656647 
	C189.461929,459.722748 152.793396,476.619873 117.379883,496.333588 
	C148.829010,511.729706 179.661026,526.756470 210.391510,541.988159 
	C213.011627,543.286804 215.514496,545.583252 217.125443,548.037415 
	C231.180267,569.448730 245.016525,591.003418 258.929138,612.508179 
	C259.766388,613.802307 260.701447,615.033203 261.819702,616.617554 
	C262.434235,615.555359 262.780151,615.014221 263.071777,614.445251 
	C278.377411,584.580444 293.637695,554.692200 309.020050,524.866882 
	C311.591248,519.881531 314.690552,515.168579 318.342133,510.238800 
	C326.539612,507.795990 334.502808,508.795593 342.153168,512.237244 
	C349.861359,515.704956 352.277466,520.332703 352.186493,528.606934 
	C352.082642,538.056152 352.486969,547.511047 352.213776,557.579468 
	C345.384094,570.360901 345.285706,583.255432 351.468536,596.303589 
	C353.740509,601.098328 356.029877,605.900757 357.947266,610.840942 
	C358.946228,613.414917 360.219086,614.281921 363.006226,614.257019 
	C379.315552,614.110962 395.626862,614.185425 411.937500,614.185425 
	C423.732635,614.185486 435.527771,614.185425 448.571381,614.185425 
	C448.018341,611.766968 448.225281,609.119446 447.024567,608.045166 
	C442.209320,603.736816 439.939728,598.198547 437.803497,592.364441 
	C432.043457,576.633362 426.048248,560.988281 420.124298,545.317444 
	C418.506287,541.037231 415.837769,537.844971 410.755890,536.317444 
	C402.023376,516.636292 395.018829,496.429535 392.290222,474.174438 
z"/>
<path fill="#2A2524" opacity="1.000000" stroke="none" 
	d="
M453.022217,219.053329 
	C461.758362,213.704086 470.619843,208.546738 479.192871,202.947769 
	C486.689301,198.051971 493.900024,192.713196 501.169006,187.475800 
	C519.799194,174.052536 539.142029,162.015182 561.064514,154.488098 
	C567.662170,152.222794 569.954346,154.926056 569.007690,160.812134 
	C568.488220,164.041840 567.537048,167.303986 566.184448,170.280655 
	C559.429321,185.146591 549.307739,197.650391 538.517212,209.751907 
	C515.246826,235.849396 492.211395,262.156433 469.093658,288.389893 
	C468.033844,289.592499 467.108337,290.913452 465.553253,292.905609 
	C467.921326,292.905609 469.501862,292.905609 471.082367,292.905609 
	C495.733398,292.905609 520.390015,293.214600 545.032959,292.767212 
	C556.316650,292.562347 564.563293,297.138947 571.161621,305.628113 
	C579.563354,316.437439 583.807312,328.994385 585.393188,342.372040 
	C587.780334,362.508453 588.097656,382.677673 580.884277,402.021301 
	C578.312073,408.919250 574.490540,415.553864 570.187439,421.554352 
	C564.356140,429.685913 556.069153,433.493225 545.670471,433.460114 
	C486.375336,433.271149 427.079224,433.410034 367.783752,433.283783 
	C363.376556,433.274384 359.949585,433.899750 357.778473,438.707123 
	C356.840027,438.721252 356.412872,438.441467 356.066711,437.798828 
	C356.712524,436.193512 357.277405,434.951111 358.249084,432.813904 
	C354.236145,433.259796 351.223328,433.594543 347.857056,433.845001 
	C346.576019,433.547516 345.648407,433.334320 344.421021,433.173248 
	C343.733093,433.331512 343.344971,433.437653 342.502625,433.445831 
	C335.058105,433.454071 328.067841,433.560242 320.624878,433.513916 
	C315.120819,433.451965 310.069366,433.542511 304.606903,433.496826 
	C302.485840,433.452057 300.775818,433.543518 298.650848,433.490784 
	C295.171936,433.573456 292.108002,433.800323 288.875366,433.779724 
	C287.561401,433.679108 286.416077,433.825958 284.787506,433.882751 
	C275.875916,433.802673 267.447571,433.812714 258.550354,433.780243 
	C250.727936,433.764252 243.374374,433.790741 235.564972,433.769440 
	C231.562958,434.162292 227.298340,433.486572 224.590088,435.229370 
	C209.808029,444.741760 195.408737,454.848877 180.553268,464.884003 
	C161.243500,475.360443 142.258301,485.704376 122.618126,496.405182 
	C133.608765,501.531372 143.795731,506.282684 154.192108,511.313354 
	C162.195145,515.261902 169.988754,518.931213 178.034409,522.812866 
	C184.501419,526.066101 190.716385,529.106995 197.165802,532.398865 
	C203.156830,535.436707 208.913406,538.223572 214.883270,541.297363 
	C218.608337,546.510681 222.242996,551.354980 225.606079,556.380981 
	C232.451065,566.610596 239.149521,576.938293 245.979126,587.557617 
	C250.661072,594.796448 255.272232,601.703125 259.921814,608.926086 
	C262.374969,613.003296 262.654633,609.227417 263.188507,608.162048 
	C269.014038,596.535706 274.724701,584.851807 280.666626,572.923218 
	C289.160065,556.949402 297.494629,541.257507 305.724274,525.510803 
	C308.539429,520.124268 311.091553,514.600281 314.152283,509.221313 
	C315.542419,509.645599 316.544128,509.987701 317.545837,510.329773 
	C314.690552,515.168579 311.591248,519.881531 309.020050,524.866882 
	C293.637695,554.692200 278.377411,584.580444 263.071777,614.445251 
	C262.780151,615.014221 262.434235,615.555359 261.819702,616.617554 
	C260.701447,615.033203 259.766388,613.802307 258.929138,612.508179 
	C245.016525,591.003418 231.180267,569.448730 217.125443,548.037415 
	C215.514496,545.583252 213.011627,543.286804 210.391510,541.988159 
	C179.661026,526.756470 148.829010,511.729706 117.379883,496.333588 
	C152.793396,476.619873 189.461929,459.722748 222.086807,433.656647 
	C219.214523,433.519012 217.643143,433.382141 216.071442,433.378601 
	C206.909714,433.357849 197.719803,432.912811 188.592712,433.475555 
	C175.030365,434.311829 165.735703,427.976471 158.645264,417.270996 
	C151.607635,406.645203 147.754776,394.783905 146.600388,382.245789 
	C144.809036,362.789215 144.262146,343.272430 151.129532,324.500610 
	C153.166321,318.933167 155.847198,313.467133 159.066864,308.494568 
	C165.810074,298.080200 174.993469,292.620300 188.192108,292.725433 
	C242.326538,293.156769 296.466431,292.881134 350.604156,292.966766 
	C353.827820,292.971863 355.978455,291.982178 358.371552,289.738647 
	C376.211884,273.013550 394.268311,256.518951 412.620667,240.299194 
	C413.046448,241.227280 413.108490,241.808258 412.984985,242.652893 
	C393.906860,257.940735 376.751465,274.785889 359.282898,292.689026 
	C377.541351,292.689026 394.466400,292.689026 411.794128,292.773621 
	C414.695007,292.808411 417.193176,292.758575 420.159546,292.782196 
	C423.432343,292.812073 426.237030,292.768463 429.491516,292.802429 
	C433.322418,292.836914 436.703430,292.793823 440.542175,292.824585 
	C446.663727,292.900452 452.345947,293.165100 457.982178,292.771271 
	C460.143982,292.620178 462.804626,291.503510 464.215637,289.917419 
	C489.008606,262.047028 513.620728,234.015961 538.322937,206.064697 
	C548.170837,194.921524 557.386169,183.315140 563.537231,169.679184 
	C565.176147,166.045975 565.334961,161.745102 566.107788,157.423676 
	C564.523132,157.187500 562.800232,156.840454 561.516602,157.437561 
	C549.497864,163.028061 537.119934,168.029282 525.680847,174.644592 
	C502.996002,187.763351 483.437469,205.764206 459.830658,217.539047 
	C458.225281,218.339798 456.656830,219.214691 454.775024,220.008087 
	C453.993317,219.658478 453.507751,219.355896 453.022217,219.053329 
M415.500000,428.070801 
	C459.156921,428.070831 502.814148,427.984741 546.470459,428.145844 
	C554.882202,428.176880 561.569275,425.017700 566.235046,418.472046 
	C570.053284,413.115356 573.460571,407.234375 575.818665,401.111572 
	C582.830688,382.905212 581.979065,363.816650 580.463013,344.867828 
	C579.526917,333.168365 576.115845,321.977234 569.596741,312.012299 
	C563.689880,302.983215 555.993652,297.859589 544.416138,297.881592 
	C424.943329,298.108765 305.469940,298.043701 185.996750,297.966309 
	C178.673752,297.961548 171.992554,299.942505 167.903839,305.748260 
	C162.900436,312.852814 158.213699,320.539093 155.263626,328.654907 
	C149.467163,344.601288 150.212738,361.488495 151.356308,378.102417 
	C152.277161,391.480743 155.665207,404.375122 163.622849,415.600006 
	C169.460251,423.834137 176.829102,428.257599 187.551376,428.218231 
	C263.200073,427.940552 338.850281,428.070831 415.500000,428.070801 
z"/>
<path fill="#242020" opacity="1.000000" stroke="none" 
	d="
M411.056976,536.976562 
	C415.837769,537.844971 418.506287,541.037231 420.124298,545.317444 
	C426.048248,560.988281 432.043457,576.633362 437.803497,592.364441 
	C439.939728,598.198547 442.209320,603.736816 447.024567,608.045166 
	C448.225281,609.119446 448.018341,611.766968 448.571381,614.185425 
	C435.527771,614.185425 423.732635,614.185486 411.937500,614.185425 
	C395.626862,614.185425 379.315552,614.110962 363.006226,614.257019 
	C360.219086,614.281921 358.946228,613.414917 357.947266,610.840942 
	C356.029877,605.900757 353.740509,601.098328 351.468536,596.303589 
	C345.285706,583.255432 345.384094,570.360901 352.647278,557.194458 
	C353.581848,556.516724 354.082886,556.224060 354.746002,556.204346 
	C355.336884,556.697388 356.001373,557.218445 356.160309,557.093994 
	C361.207428,553.140869 366.205536,549.125122 371.524292,545.053528 
	C373.249298,544.071411 374.661133,543.154602 376.442993,542.154541 
	C379.899017,541.119995 382.985016,540.168762 386.514587,539.218384 
	C393.285370,539.000916 399.612579,538.782471 405.966675,538.956665 
	C405.777588,543.413025 404.804260,547.623413 405.554413,551.500244 
	C406.335693,555.538025 405.363373,560.911011 411.678955,562.616333 
	C413.778351,563.183228 415.820923,566.324402 416.677856,568.721802 
	C420.482941,579.367126 423.848145,590.169739 427.360229,600.878296 
	C424.561737,600.878296 421.120514,600.878296 417.679291,600.878296 
	C417.656830,601.297607 417.634369,601.716858 417.611908,602.136169 
	C418.653870,602.423462 419.688660,602.928223 420.738953,602.962830 
	C427.565643,603.188049 433.752289,604.552124 438.742249,609.952698 
	C440.246185,611.580444 443.474609,611.614746 445.913055,612.378967 
	C446.169678,611.923767 446.426300,611.468567 446.682953,611.013367 
	C438.532043,605.158508 436.763275,595.994324 433.612946,587.453796 
	C428.500885,573.595276 422.917969,559.910950 417.625641,546.117859 
	C416.035248,541.972839 413.095428,539.714355 408.879639,538.596680 
	C408.952759,537.869934 409.005554,537.456665 409.391907,537.047974 
	C410.169312,537.027283 410.613129,537.001953 411.056976,536.976562 
z"/>
<path fill="#120E0C" opacity="1.000000" stroke="none" 
	d="
M354.583923,555.931396 
	C354.082886,556.224060 353.581848,556.516724 352.875641,556.886414 
	C352.486969,547.511047 352.082642,538.056152 352.186493,528.606934 
	C352.277466,520.332703 349.861359,515.704956 342.153168,512.237244 
	C334.502808,508.795593 326.539612,507.795990 317.943970,510.284302 
	C316.544128,509.987701 315.542419,509.645599 313.809998,509.152283 
	C310.893524,507.821014 308.816833,506.329315 306.501678,505.519165 
	C299.483429,503.063263 293.550354,499.291534 288.665222,493.535492 
	C286.037842,490.439667 282.358429,488.236664 278.954529,485.373077 
	C274.594604,481.019501 268.331848,478.422577 268.826752,470.687134 
	C271.570984,465.785217 274.270264,461.289612 276.859955,456.731750 
	C277.706879,455.241119 279.010376,453.500732 278.835449,452.025024 
	C277.984894,444.849060 280.240356,438.961304 285.270752,433.972839 
	C286.416077,433.825958 287.561401,433.679108 288.706238,434.048737 
	C287.450500,435.971649 286.195221,437.378082 284.631775,438.978058 
	C279.972076,443.932892 280.790802,449.450592 281.742615,455.223358 
	C279.667999,457.618652 277.854889,459.816650 275.785583,462.181244 
	C275.008179,463.214478 274.486908,464.081085 273.678772,465.165771 
	C269.945465,472.951019 270.016602,474.014557 276.077271,479.500549 
	C281.936615,484.804321 288.046387,489.831512 294.190247,495.286438 
	C301.563782,499.654968 308.793182,503.717255 316.426025,507.883179 
	C324.849976,506.070160 332.750916,506.095703 340.618896,508.954193 
	C349.733093,512.265503 355.212433,519.452820 354.963135,527.646729 
	C354.676453,537.070068 354.696869,546.502747 354.583923,555.931396 
z"/>
<path fill="#342F2C" opacity="1.000000" stroke="none" 
	d="
M413.170532,242.389236 
	C413.108490,241.808258 413.046448,241.227280 412.957855,240.208801 
	C423.595673,233.300247 434.190643,226.709213 444.987335,220.467087 
	C446.966614,219.322769 449.765594,219.596344 452.604218,219.134369 
	C453.507751,219.355896 453.993317,219.658478 454.538879,220.244843 
	C453.332092,221.771286 452.222687,223.254044 450.766846,224.208191 
	C447.419556,226.402023 445.413788,231.224365 439.996399,229.585205 
	C439.546692,229.356812 439.264771,229.364914 438.982880,229.373016 
	C439.084808,229.741623 439.186737,230.110229 439.455078,230.779877 
	C439.349426,231.919342 439.335297,233.060089 438.763824,233.547760 
	C434.631683,237.073898 430.470490,240.577957 426.147888,243.864639 
	C423.347778,245.993683 420.364990,245.446487 418.193848,242.861252 
	C416.457855,240.794220 414.973022,241.155884 413.170532,242.389236 
M437.404999,228.134644 
	C436.805634,228.134644 436.206268,228.134644 435.606903,228.134644 
	C435.612183,228.362839 435.617432,228.591049 435.622711,228.819244 
	C436.375458,228.769394 437.128174,228.719528 437.404999,228.134644 
z"/>
<path fill="#342F2C" opacity="1.000000" stroke="none" 
	d="
M410.906433,536.646973 
	C410.613129,537.001953 410.169312,537.027283 409.089294,536.863342 
	C407.497192,534.755127 406.404236,532.891235 405.606750,530.908569 
	C398.579346,513.437134 392.359833,495.723724 389.855835,476.546021 
	C389.978668,475.080658 390.042267,474.011658 390.339844,473.119476 
	C391.082001,473.857666 391.590210,474.419067 392.098450,474.980469 
	C395.018829,496.429535 402.023376,516.636292 410.906433,536.646973 
z"/>
<path fill="#120E0C" opacity="1.000000" stroke="none" 
	d="
M392.194336,474.577454 
	C391.590210,474.419067 391.082001,473.857666 390.207458,472.795288 
	C387.879120,469.257965 386.476654,465.574158 383.851349,463.305359 
	C375.591553,456.166931 366.892883,449.533997 358.298035,442.789551 
	C357.470398,442.140076 356.182983,442.076599 355.057495,441.401428 
	C351.577606,438.414856 348.149200,435.767975 344.720825,433.121124 
	C345.648407,433.334320 346.576019,433.547516 348.136475,434.019653 
	C351.174835,435.572968 353.580292,436.867340 355.985748,438.161713 
	C356.412872,438.441467 356.840027,438.721252 357.536285,438.981079 
	C364.774597,444.239777 372.026367,449.192657 378.615906,454.908936 
	C383.184631,458.872345 387.002747,463.758057 390.804993,468.512573 
	C391.918671,469.905182 391.828613,472.260406 392.194336,474.577454 
z"/>
<path fill="#E3242A" opacity="1.000000" stroke="none" 
	d="
M415.000000,428.070831 
	C338.850281,428.070831 263.200073,427.940552 187.551376,428.218231 
	C176.829102,428.257599 169.460251,423.834137 163.622849,415.600006 
	C155.665207,404.375122 152.277161,391.480743 151.356308,378.102417 
	C150.212738,361.488495 149.467163,344.601288 155.263626,328.654907 
	C158.213699,320.539093 162.900436,312.852814 167.903839,305.748260 
	C171.992554,299.942505 178.673752,297.961548 185.996750,297.966309 
	C305.469940,298.043701 424.943329,298.108765 544.416138,297.881592 
	C555.993652,297.859589 563.689880,302.983215 569.596741,312.012299 
	C576.115845,321.977234 579.526917,333.168365 580.463013,344.867828 
	C581.979065,363.816650 582.830688,382.905212 575.818665,401.111572 
	C573.460571,407.234375 570.053284,413.115356 566.235046,418.472046 
	C561.569275,425.017700 554.882202,428.176880 546.470459,428.145844 
	C502.814148,427.984741 459.156921,428.070831 415.000000,428.070831 
M317.430054,384.001434 
	C316.233337,385.358856 314.697662,386.540863 313.890930,388.100067 
	C302.334808,410.435822 270.174866,416.116608 252.915588,398.804382 
	C240.811569,386.663177 239.451355,365.701874 249.704514,349.320190 
	C259.068573,334.358978 277.946350,327.408691 294.068695,332.986389 
	C304.261902,336.512848 311.383514,346.135468 311.997314,357.211151 
	C312.721985,370.286774 306.511200,382.493713 296.592590,386.848816 
	C294.841003,387.617920 291.922424,387.963043 290.677582,387.014557 
	C289.469543,386.094147 289.064697,383.116241 289.457336,381.289032 
	C290.572388,376.099579 292.287476,371.039917 293.742828,365.922455 
	C295.307465,360.420837 296.845428,354.911652 298.739960,348.180084 
	C293.846527,350.324402 288.718353,346.371826 286.084808,352.289185 
	C282.299652,347.232910 279.005096,346.180359 274.210236,349.209412 
	C261.970276,356.941528 255.845490,368.295868 256.268982,382.702728 
	C256.350159,385.463409 258.742035,389.477722 261.101685,390.480103 
	C263.484772,391.492493 267.638763,390.226685 270.133698,388.602356 
	C273.190491,386.612213 275.329895,383.212860 277.883881,380.403015 
	C278.935120,390.094147 282.272644,392.656219 292.091339,390.901642 
	C294.655640,390.443359 297.220123,389.399628 299.518188,388.139221 
	C309.733154,382.536591 316.270752,368.277527 314.663635,355.535278 
	C312.970062,342.107727 305.300507,332.621826 292.509247,329.668884 
	C275.715027,325.791840 260.467743,329.345520 248.830887,342.524780 
	C237.111938,355.796967 234.997879,371.466034 241.186340,387.855804 
	C246.738525,402.560394 261.655334,411.621429 278.465088,411.515381 
	C296.775604,411.399902 311.439911,401.443665 318.733246,385.141052 
	C318.890320,387.078857 319.047394,389.016663 319.207123,390.987518 
	C328.566711,390.987518 337.621918,390.987518 346.706146,390.987518 
	C346.706146,388.083862 346.706146,385.514526 346.706146,382.677368 
	C340.804352,383.608215 339.816864,380.624725 339.971985,375.713501 
	C340.291718,365.588959 340.068207,355.447235 340.068207,344.550659 
	C332.736664,346.277832 325.953033,347.875946 319.144348,349.479950 
	C319.144348,352.036987 319.144348,354.493408 319.144348,357.085297 
	C321.389801,357.348267 323.448944,357.589417 325.705322,357.853668 
	C325.705322,363.776489 325.635040,369.268219 325.727875,374.757172 
	C325.800446,379.048126 326.371185,383.509888 319.741302,382.885864 
	C319.220398,382.836884 318.591888,383.931671 317.430054,384.001434 
M189.341202,391.322205 
	C191.092880,390.132660 192.844559,388.943085 194.781342,387.627808 
	C203.881241,392.183990 209.020615,393.209625 217.389206,392.019012 
	C230.469803,390.158020 238.914795,379.286316 236.063385,367.961395 
	C234.234268,360.696594 228.861359,356.990265 222.303696,354.742859 
	C215.860504,352.534637 209.244827,350.828430 202.808075,348.603333 
	C199.501846,347.460419 195.685959,345.734955 196.736450,341.369537 
	C197.722321,337.272736 201.684341,336.887238 205.316864,337.023590 
	C212.484741,337.292572 217.904373,340.801880 222.181854,346.360657 
	C226.599045,352.101013 226.614166,352.089386 234.117340,348.714996 
	C232.322708,341.818237 230.511185,334.856598 228.485870,327.073303 
	C225.117218,328.193024 222.398346,329.096741 219.107788,330.190491 
	C209.417847,325.406128 199.009674,325.090118 189.187149,331.948273 
	C178.788300,339.208862 179.644714,354.061584 190.740158,360.114838 
	C194.499023,362.165558 198.658051,363.528259 202.717743,364.970154 
	C207.410721,366.636963 212.252106,367.892181 216.921005,369.618347 
	C219.969772,370.745544 222.812134,372.554718 222.243698,376.486237 
	C221.654495,380.561310 218.405731,381.645111 214.934021,382.016754 
	C204.618988,383.121063 197.393204,378.101166 191.897064,369.994446 
	C188.001053,364.247894 188.088287,364.188751 180.668289,367.370850 
	C182.004974,374.583618 183.249344,381.938599 184.863785,389.211426 
	C185.068970,390.135712 187.209763,390.630310 189.341202,391.322205 
M422.551056,345.914307 
	C420.312744,345.914307 418.074432,345.914307 415.995300,345.914307 
	C415.995300,349.347076 415.995300,351.940765 415.995300,354.893951 
	C421.451050,353.967712 422.599609,356.762360 422.275574,361.206116 
	C422.022095,364.682373 422.227386,368.191986 422.226440,371.686798 
	C422.224823,377.632324 419.122620,381.001862 413.212463,381.482056 
	C410.043488,381.739563 407.998657,380.607391 407.960907,377.127350 
	C407.912140,372.634613 407.905182,368.141357 407.897766,363.648254 
	C407.888031,357.742310 407.895386,351.836395 407.895386,346.165833 
	C400.356628,346.165833 393.623932,346.165833 386.809265,346.165833 
	C386.809265,349.229126 386.809265,351.837067 386.809265,354.788361 
	C392.905334,353.708862 393.457642,357.183655 393.267639,361.784302 
	C393.027527,367.597382 393.029633,373.441589 393.335236,379.250946 
	C393.757599,387.278748 398.277924,392.305206 406.263580,392.051849 
	C411.485352,391.886169 416.634033,389.392548 421.813080,387.933228 
	C422.410980,387.764771 422.993683,387.542419 423.637817,387.326874 
	C423.842773,388.985138 424.016846,390.393402 424.118225,391.213745 
	C430.908051,391.213745 437.275299,391.213745 443.624420,391.213745 
	C443.624420,388.036560 443.624420,385.583344 443.624420,382.728607 
	C437.478882,383.684906 436.695068,380.380493 436.870300,375.378265 
	C437.212189,365.618378 436.970551,355.838104 436.970551,345.907715 
	C432.127197,345.907715 427.833221,345.907715 422.551056,345.914307 
M352.740631,354.718170 
	C354.730438,355.231018 356.720276,355.743866 359.178558,356.377472 
	C359.178558,362.312622 359.181458,368.446747 359.177826,374.580841 
	C359.173706,381.495758 359.171143,381.495758 352.917053,383.371002 
	C352.917053,386.004456 352.917053,388.568420 352.917053,391.389893 
	C357.801300,391.389893 362.283905,391.389923 366.766541,391.389923 
	C371.336243,391.389923 375.905914,391.389893 380.475616,391.389893 
	C380.475616,388.066040 380.475616,385.620392 380.475616,384.346832 
	C377.823883,382.500305 374.309296,381.259705 374.205017,379.778900 
	C373.647736,371.866638 373.942261,363.894379 373.942261,355.938354 
	C376.584930,355.732605 378.692688,355.568512 380.817871,355.403046 
	C380.817871,352.139496 380.817871,349.223053 380.817871,345.910339 
	C378.449890,345.910339 376.356750,345.910339 374.048950,345.910339 
	C373.976959,344.725555 373.740753,343.882751 373.912964,343.133850 
	C374.585144,340.210693 375.386627,337.317291 376.140015,334.412811 
	C378.254486,335.767395 380.389343,337.091339 382.478760,338.483551 
	C385.776398,340.680756 389.214844,341.154327 391.887054,337.935791 
	C394.533630,334.748138 393.687256,331.311554 390.743164,328.615906 
	C389.432953,327.416260 387.769867,326.447968 386.099548,325.819916 
	C372.023834,320.526947 359.520447,328.899139 359.160370,343.767822 
	C359.145294,344.392426 359.005707,345.014008 358.903809,345.791809 
	C356.770294,345.943207 354.847015,346.079712 352.558472,346.242126 
	C352.558472,348.943024 352.558472,351.413025 352.740631,354.718170 
M556.421570,382.455139 
	C558.301270,374.000336 556.434021,369.807526 549.014648,366.174591 
	C546.933411,365.155518 544.728088,364.379852 542.552307,363.565765 
	C538.821228,362.169830 534.997009,360.993011 531.363281,359.382660 
	C530.065857,358.807678 529.207642,357.241608 528.148926,356.127899 
	C529.630432,355.350342 531.109863,353.946747 532.593872,353.941986 
	C534.818848,353.934814 537.324097,354.446838 539.208313,355.575714 
	C541.989441,357.241913 544.329529,359.644165 546.987244,361.840271 
	C549.409485,360.826385 551.990051,359.746185 554.745667,358.592743 
	C554.256287,356.781494 553.875061,355.194397 553.395813,353.637512 
	C552.666809,351.269318 552.530457,347.900574 550.914429,346.855469 
	C549.322510,345.825928 546.206604,347.312988 543.750183,347.385345 
	C542.691528,347.416534 541.622498,346.626587 540.536499,346.276886 
	C534.625671,344.373566 528.724548,344.161774 523.067139,347.010132 
	C518.358215,349.381012 515.089417,352.922577 514.929260,358.607086 
	C514.766052,364.401703 517.937134,368.036346 522.830566,370.174652 
	C528.144653,372.496765 533.767273,374.121674 539.043274,376.517548 
	C540.943054,377.380219 542.226929,379.599304 543.791870,381.199371 
	C541.578796,381.947693 538.951233,383.840179 537.234436,383.218384 
	C532.992004,381.681702 529.095093,379.108795 525.213440,376.703644 
	C523.882141,375.878784 523.008484,374.315338 521.773376,372.916779 
	C518.999268,374.126526 516.350647,375.281555 513.487610,376.530060 
	C515.071228,380.773743 516.693726,384.426666 517.785950,388.231781 
	C519.028564,392.561096 522.700989,392.386230 524.717834,390.778320 
	C527.012451,388.948975 528.123291,390.071075 529.801880,390.747955 
	C540.084167,394.894531 550.803650,391.812622 556.421570,382.455139 
M450.604279,391.160492 
	C459.528076,391.160492 468.451843,391.160492 477.573975,391.160492 
	C477.573975,388.188660 477.573975,385.743347 477.573975,383.328979 
	C470.930634,381.656403 470.930298,381.656403 470.927612,374.461487 
	C470.926605,371.796661 470.926971,369.131866 470.927460,366.467041 
	C470.928833,358.683350 471.090942,358.551361 478.835876,360.023346 
	C484.359161,361.073120 488.110992,358.542572 488.473572,353.522766 
	C488.932922,347.164215 483.050018,343.118439 476.925385,345.823883 
	C474.309265,346.979523 472.016357,348.866730 469.377716,350.548218 
	C469.250397,348.541046 469.148224,346.929932 468.990936,344.450256 
	C462.479279,346.027710 456.299377,347.524811 449.925049,349.069000 
	C449.925049,351.762085 449.925049,354.366364 449.925049,357.129395 
	C452.048828,357.386414 453.958618,357.617554 456.251343,357.895050 
	C456.251343,363.948395 456.032593,369.760315 456.320679,375.546967 
	C456.550537,380.164429 455.882782,383.540680 449.877441,382.820953 
	C449.877441,385.589264 449.877441,388.046631 450.604279,391.160492 
M340.858032,334.974396 
	C341.519928,330.959381 340.493835,327.242096 336.643738,325.849365 
	C334.179932,324.958160 330.163025,324.904938 328.420959,326.362610 
	C326.317932,328.122345 324.666504,332.074646 325.091644,334.711609 
	C325.473450,337.079712 328.587616,339.951111 331.109467,340.818848 
	C335.359100,342.281036 338.786987,339.975159 340.858032,334.974396 
M504.964447,334.533630 
	C504.592987,329.172516 502.601013,326.561676 499.188995,326.963898 
	C495.829254,327.359955 494.051056,330.652557 494.782257,335.594055 
	C495.485809,340.348511 496.299927,345.094482 497.321564,349.788422 
	C497.576385,350.959076 498.817871,351.915009 499.605865,352.969604 
	C500.447021,351.826630 501.741211,350.792999 502.048157,349.521088 
	C503.174835,344.852600 503.973633,340.104980 504.964447,334.533630 
z"/>
<path fill="#EE952D" opacity="1.000000" stroke="none" 
	d="
M412.984985,242.652893 
	C414.973022,241.155884 416.457855,240.794220 418.193848,242.861252 
	C420.364990,245.446487 423.347778,245.993683 426.147888,243.864639 
	C430.470490,240.577957 434.631683,237.073898 438.763824,233.547760 
	C439.335297,233.060089 439.349426,231.919342 439.690186,230.637177 
	C439.893982,230.069504 440.029114,229.945602 440.164246,229.821716 
	C445.413788,231.224365 447.419556,226.402023 450.766846,224.208191 
	C452.222687,223.254044 453.332092,221.771286 454.835052,220.291870 
	C456.656830,219.214691 458.225281,218.339798 459.830658,217.539047 
	C483.437469,205.764206 502.996002,187.763351 525.680847,174.644592 
	C537.119934,168.029282 549.497864,163.028061 561.516602,157.437561 
	C562.800232,156.840454 564.523132,157.187500 565.745239,157.512177 
	C562.267517,160.645355 559.086731,163.362946 555.586609,166.157013 
	C550.190247,169.888870 545.113220,173.544235 539.722351,177.298553 
	C519.750061,194.113190 499.671387,210.364090 480.540527,227.663208 
	C457.076630,248.880447 434.405396,270.974213 411.391449,292.689026 
	C394.466400,292.689026 377.541351,292.689026 359.282898,292.689026 
	C376.751465,274.785889 393.906860,257.940735 412.984985,242.652893 
M386.053741,281.476135 
	C383.568542,283.190918 381.083313,284.905701 377.967163,287.055817 
	C380.379486,288.519806 381.713379,289.329285 382.934479,290.070374 
	C388.046021,285.173218 388.046021,285.173218 386.053741,281.476135 
M394.517181,274.868835 
	C397.388000,277.323639 398.704437,274.574799 399.817383,272.913361 
	C400.431671,271.996307 399.782776,270.233154 399.703369,268.851440 
	C399.121857,268.747223 398.540375,268.642975 397.958862,268.538727 
	C396.665100,270.453247 395.371307,272.367767 394.517181,274.868835 
z"/>
<path fill="#AA6E51" opacity="1.000000" stroke="none" 
	d="
M284.787506,433.882721 
	C280.240356,438.961304 277.984894,444.849060 278.835449,452.025024 
	C279.010376,453.500732 277.706879,455.241119 276.859955,456.731750 
	C274.270264,461.289612 271.570984,465.785217 268.565491,470.862976 
	C267.121521,473.213074 266.026489,475.005249 264.645752,476.988403 
	C259.576324,483.454468 254.792572,489.729553 249.734589,496.198547 
	C241.323868,507.409149 233.292282,518.505676 224.996964,529.401489 
	C221.868790,533.510315 218.130264,537.154480 214.669952,541.010498 
	C208.913406,538.223572 203.156830,535.436707 197.306549,532.073608 
	C198.056641,530.277100 198.785172,528.954285 199.764206,527.854492 
	C204.019638,523.074341 208.617584,518.572998 212.586395,513.569946 
	C218.443619,506.186523 223.971558,498.533813 229.444748,490.856781 
	C232.607239,486.420746 235.386734,481.711700 238.338608,477.125519 
	C237.867950,476.720734 237.397293,476.315948 236.926620,475.911133 
	C234.899918,477.498871 232.873215,479.086578 230.846497,480.674286 
	C230.699783,478.744629 231.215591,477.184021 232.099060,475.870728 
	C240.144867,463.910950 248.300385,452.024689 256.297852,440.032928 
	C257.532654,438.181396 258.128113,435.903473 259.019226,433.822754 
	C267.447571,433.812714 275.875916,433.802673 284.787506,433.882721 
z"/>
<path fill="#AF7659" opacity="1.000000" stroke="none" 
	d="
M258.550354,433.780212 
	C258.128113,435.903473 257.532654,438.181396 256.297852,440.032928 
	C248.300385,452.024689 240.144867,463.910950 232.099060,475.870728 
	C231.215591,477.184021 230.699783,478.744629 230.846497,480.674286 
	C232.873215,479.086578 234.899918,477.498871 236.926620,475.911133 
	C237.397293,476.315948 237.867950,476.720734 238.338608,477.125519 
	C235.386734,481.711700 232.607239,486.420746 229.444748,490.856781 
	C223.971558,498.533813 218.443619,506.186523 212.586395,513.569946 
	C208.617584,518.572998 204.019638,523.074341 199.764206,527.854492 
	C198.785172,528.954285 198.056641,530.277100 197.072098,531.822632 
	C190.716385,529.106995 184.501419,526.066101 178.171524,522.447632 
	C179.397491,520.193848 180.866394,518.603821 182.060135,516.828735 
	C199.332932,491.143799 216.591782,465.449371 233.761307,439.695435 
	C234.897385,437.991333 235.285034,435.788239 236.020798,433.817230 
	C243.374374,433.790741 250.727936,433.764252 258.550354,433.780212 
z"/>
<path fill="#F7AB80" opacity="1.000000" stroke="none" 
	d="
M555.905945,166.080536 
	C559.086731,163.362946 562.267517,160.645355 565.810791,157.839264 
	C565.334961,161.745102 565.176147,166.045975 563.537231,169.679184 
	C557.386169,183.315140 548.170837,194.921524 538.322937,206.064697 
	C513.620728,234.015961 489.008606,262.047028 464.215637,289.917419 
	C462.804626,291.503510 460.143982,292.620178 457.982178,292.771271 
	C452.345947,293.165100 446.663727,292.900452 440.693665,292.551392 
	C463.397552,267.509888 486.392029,242.800842 509.423248,218.126099 
	C524.287354,202.201248 539.228882,186.348465 554.047058,170.381180 
	C555.048584,169.302048 555.303711,167.530197 555.905945,166.080536 
z"/>
<path fill="#B37E64" opacity="1.000000" stroke="none" 
	d="
M235.564972,433.769440 
	C235.285034,435.788239 234.897385,437.991333 233.761307,439.695435 
	C216.591782,465.449371 199.332932,491.143799 182.060135,516.828735 
	C180.866394,518.603821 179.397491,520.193848 177.919479,522.235229 
	C169.988754,518.931213 162.195145,515.261902 154.399597,511.042542 
	C156.696625,508.482330 159.515625,506.833344 161.205444,504.400146 
	C168.925888,493.283386 176.347015,481.958191 183.825058,470.674316 
	C184.768967,469.250061 185.414154,467.627869 186.174789,466.142151 
	C184.013290,465.574677 182.445557,465.163086 180.877823,464.751495 
	C195.408737,454.848877 209.808029,444.741760 224.590088,435.229370 
	C227.298340,433.486572 231.562958,434.162292 235.564972,433.769440 
z"/>
<path fill="#C0957E" opacity="1.000000" stroke="none" 
	d="
M264.931427,476.797424 
	C266.026489,475.005249 267.121521,473.213074 268.477844,471.245056 
	C268.331848,478.422577 274.594604,481.019501 278.915955,485.821472 
	C279.384796,492.818481 279.999390,499.111969 279.945496,505.399750 
	C279.761658,526.857056 279.319763,548.312073 279.077454,569.769104 
	C279.064667,570.901917 279.982178,572.045166 280.466583,573.183594 
	C274.724701,584.851807 269.014038,596.535706 263.188507,608.162048 
	C262.654633,609.227417 262.374969,613.003296 259.951050,608.410400 
	C259.961639,570.837891 259.939270,534.096985 260.078644,497.356812 
	C260.090210,494.314148 260.255371,490.482300 262.001801,488.409698 
	C265.095001,484.738800 265.117706,480.947845 264.931427,476.797424 
z"/>
<path fill="#CAA48E" opacity="1.000000" stroke="none" 
	d="
M214.883255,541.297363 
	C218.130264,537.154480 221.868790,533.510315 224.996964,529.401489 
	C233.292282,518.505676 241.323868,507.409149 250.098175,496.267151 
	C250.636032,497.937714 250.706879,499.763550 250.398392,501.522827 
	C249.855423,504.619080 248.863403,507.648071 248.483124,510.757080 
	C248.248962,512.671509 248.969131,514.681641 248.973343,516.649414 
	C249.016006,536.598816 249.150375,556.550537 248.860168,576.495850 
	C248.807938,580.085999 246.938705,583.649658 245.908356,587.225586 
	C239.149521,576.938293 232.451065,566.610596 225.606079,556.380981 
	C222.242996,551.354980 218.608337,546.510681 214.883255,541.297363 
z"/>
<path fill="#BB8C76" opacity="1.000000" stroke="none" 
	d="
M280.666626,572.923218 
	C279.982178,572.045166 279.064667,570.901917 279.077454,569.769104 
	C279.319763,548.312073 279.761658,526.857056 279.945496,505.399750 
	C279.999390,499.111969 279.384796,492.818481 279.115143,486.079193 
	C282.358429,488.236664 286.037842,490.439667 288.665222,493.535492 
	C293.550354,499.291534 299.483429,503.063263 306.501678,505.519165 
	C308.816833,506.329315 310.893524,507.821014 313.421570,509.070068 
	C311.091553,514.600281 308.539429,520.124268 305.724274,525.510803 
	C297.494629,541.257507 289.160065,556.949402 280.666626,572.923218 
z"/>
<path fill="#C69D86" opacity="1.000000" stroke="none" 
	d="
M245.979141,587.557617 
	C246.938705,583.649658 248.807938,580.085999 248.860168,576.495850 
	C249.150375,556.550537 249.016006,536.598816 248.973343,516.649414 
	C248.969131,514.681641 248.248962,512.671509 248.483124,510.757080 
	C248.863403,507.648071 249.855423,504.619080 250.398392,501.522827 
	C250.706879,499.763550 250.636032,497.937714 250.372406,496.073242 
	C254.792572,489.729553 259.576324,483.454468 264.645752,476.988403 
	C265.117706,480.947845 265.095001,484.738800 262.001801,488.409698 
	C260.255371,490.482300 260.090210,494.314148 260.078644,497.356812 
	C259.939270,534.096985 259.961639,570.837891 259.912659,608.094238 
	C255.272232,601.703125 250.661072,594.796448 245.979141,587.557617 
z"/>
<path fill="#B8866F" opacity="1.000000" stroke="none" 
	d="
M180.553268,464.884003 
	C182.445557,465.163086 184.013290,465.574677 186.174789,466.142151 
	C185.414154,467.627869 184.768967,469.250061 183.825058,470.674316 
	C176.347015,481.958191 168.925888,493.283386 161.205444,504.400146 
	C159.515625,506.833344 156.696625,508.482330 154.190186,510.763245 
	C143.795731,506.282684 133.608765,501.531372 122.618126,496.405182 
	C142.258301,485.704376 161.243500,475.360443 180.553268,464.884003 
z"/>
<path fill="#FEF9F9" opacity="1.000000" stroke="none" 
	d="
M555.586609,166.157013 
	C555.303711,167.530197 555.048584,169.302048 554.047058,170.381180 
	C539.228882,186.348465 524.287354,202.201248 509.423248,218.126099 
	C486.392029,242.800842 463.397552,267.509888 440.235992,292.477600 
	C436.703430,292.793823 433.322418,292.836914 429.673279,292.542175 
	C465.203888,256.414825 501.007660,220.630417 536.779724,184.814362 
	C538.005676,183.586929 538.914001,182.042374 539.970215,180.633667 
	C539.969971,180.621719 540.030457,180.508804 540.390259,180.657349 
	C541.843567,179.822571 542.937073,178.839233 544.030518,177.855896 
	C543.817078,177.581482 543.603699,177.307053 543.390259,177.032639 
	C542.402283,177.628433 541.414246,178.224243 540.320068,178.417007 
	C540.154663,177.742508 540.095459,177.471054 540.036194,177.199600 
	C545.113220,173.544235 550.190247,169.888870 555.586609,166.157013 
z"/>
<path fill="#BC612E" opacity="1.000000" stroke="none" 
	d="
M284.939941,438.784515 
	C286.195221,437.378082 287.450500,435.971649 288.874908,434.296204 
	C292.108002,433.800323 295.171936,433.573456 298.629822,433.895203 
	C299.687805,440.291809 300.351868,446.139801 300.752411,451.822327 
	C299.936371,451.202301 299.383881,450.747772 298.979706,450.415253 
	C298.979706,454.132568 299.158997,457.638977 298.944855,461.121185 
	C298.383575,470.248627 297.593231,479.361938 297.022400,488.488892 
	C296.858124,491.114838 297.556061,493.961121 294.046143,494.980194 
	C288.046387,489.831512 281.936615,484.804321 276.077271,479.500549 
	C270.016602,474.014557 269.945465,472.951019 273.916138,465.446106 
	C277.433563,466.962830 280.386658,468.509979 283.437744,469.830688 
	C284.861481,470.446991 286.474945,470.624908 288.001221,471.000763 
	C288.000000,471.000000 287.998077,470.997559 288.061920,471.362640 
	C290.148743,472.353210 292.171753,472.978699 294.194733,473.604187 
	C293.945709,471.659210 294.175140,469.483917 293.368134,467.807556 
	C288.928497,458.585419 281.611145,450.255585 284.939941,438.784515 
z"/>
<path fill="#E82C2F" opacity="1.000000" stroke="none" 
	d="
M539.970398,180.645630 
	C538.914001,182.042374 538.005676,183.586929 536.779724,184.814362 
	C501.007660,220.630417 465.203888,256.414825 429.223450,292.464600 
	C426.237030,292.768463 423.432343,292.812073 420.320862,292.488342 
	C457.977264,256.289642 495.929016,220.446091 533.940491,184.666016 
	C535.675049,183.033264 537.948120,181.972702 539.970398,180.645630 
z"/>
<path fill="#FEF4F4" opacity="1.000000" stroke="none" 
	d="
M539.970215,180.633667 
	C537.948120,181.972702 535.675049,183.033264 533.940491,184.666016 
	C495.929016,220.446091 457.977264,256.289642 419.852722,292.414917 
	C417.193176,292.758575 414.695007,292.808411 411.794128,292.773621 
	C434.405396,270.974213 457.076630,248.880447 480.540527,227.663208 
	C499.671387,210.364090 519.750061,194.113190 539.722351,177.298553 
	C540.095459,177.471054 540.154663,177.742508 540.122925,178.679352 
	C540.031494,179.732742 540.031006,180.120773 540.030518,180.508804 
	C540.030457,180.508804 539.969971,180.621719 539.970215,180.633667 
z"/>
<path fill="#E17933" opacity="1.000000" stroke="none" 
	d="
M321.077545,433.666412 
	C328.067841,433.560242 335.058105,433.454071 342.524506,433.771118 
	C345.428925,439.268158 349.526276,442.064728 355.151428,443.301575 
	C357.331482,446.124146 359.082886,448.687531 356.610687,451.974060 
	C348.444397,449.432770 340.749359,446.617554 332.852020,444.590271 
	C329.100403,443.627197 324.963074,444.166779 320.848755,443.669373 
	C320.823883,440.097534 320.950714,436.881958 321.077545,433.666412 
z"/>
<path fill="#CF732C" opacity="1.000000" stroke="none" 
	d="
M320.624878,433.513916 
	C320.950714,436.881958 320.823883,440.097534 320.801697,443.999725 
	C318.940399,446.791718 316.974487,448.897095 314.703552,451.155975 
	C311.265686,453.537842 308.132843,455.766205 305.000610,457.580322 
	C305.006805,449.321747 305.012390,441.477386 305.017944,433.633057 
	C310.069366,433.542511 315.120819,433.451965 320.624878,433.513916 
z"/>
<path fill="#CF7634" opacity="1.000000" stroke="none" 
	d="
M304.606934,433.496826 
	C305.012390,441.477386 305.006805,449.321747 304.745728,457.415833 
	C303.994904,456.779327 303.499603,455.893036 302.978119,454.685242 
	C302.307037,453.572144 301.662140,452.780518 301.010620,451.992798 
	C301.003967,451.996735 301.015930,451.987823 301.015930,451.987823 
	C300.351868,446.139801 299.687805,440.291809 299.044769,434.039368 
	C300.775818,433.543518 302.485840,433.452057 304.606934,433.496826 
z"/>
<path fill="#D86F3F" opacity="1.000000" stroke="none" 
	d="
M354.997375,442.987000 
	C349.526276,442.064728 345.428925,439.268158 342.978729,433.869019 
	C343.344971,433.437653 343.733093,433.331512 344.421021,433.173248 
	C348.149200,435.767975 351.577606,438.414856 355.023743,441.712402 
	C355.026825,442.571075 355.012115,442.779022 354.997375,442.987000 
z"/>
<path fill="#AA6E51" opacity="1.000000" stroke="none" 
	d="
M356.066711,437.798828 
	C353.580292,436.867340 351.174835,435.572968 348.489929,434.103943 
	C351.223328,433.594543 354.236145,433.259796 358.249084,432.813904 
	C357.277405,434.951111 356.712524,436.193512 356.066711,437.798828 
z"/>
<path fill="#CF642F" opacity="1.000000" stroke="none" 
	d="
M315.008545,451.002441 
	C316.974487,448.897095 318.940399,446.791718 320.953400,444.356018 
	C324.963074,444.166779 329.100403,443.627197 332.852020,444.590271 
	C340.749359,446.617554 348.444397,449.432770 356.827759,452.238068 
	C361.332001,454.724854 365.556519,456.482208 369.029114,459.200256 
	C371.927124,461.468567 374.815369,464.513123 376.149139,467.839020 
	C378.204620,472.964447 382.014252,478.441437 376.926575,484.245300 
	C376.082947,485.207703 376.284821,487.407745 376.537842,488.948059 
	C377.201904,492.990417 378.160950,496.984344 379.001465,501.417297 
	C379.829041,506.212494 380.658417,510.587830 381.485901,514.963501 
	C383.014862,523.048035 384.542725,531.132812 386.071014,539.217468 
	C382.985016,540.168762 379.899017,541.119995 376.426819,541.732300 
	C376.315399,535.003845 377.153809,528.578613 376.751312,522.232117 
	C375.820251,507.550018 373.930664,492.925140 373.143890,478.238831 
	C372.720886,470.342529 369.269196,464.608002 362.657867,461.546112 
	C355.046692,458.021271 346.920166,455.399109 338.782532,453.292297 
	C332.994904,451.793976 327.234924,452.739105 323.165405,458.292358 
	C319.549408,463.226807 320.956787,467.983093 322.932098,472.901093 
	C323.733337,474.895874 324.385773,476.958038 324.987671,479.023987 
	C327.717987,488.395172 332.049194,496.098907 341.685150,500.526154 
	C353.801819,506.093201 361.657410,515.370361 363.180939,529.377563 
	C363.834930,535.390320 364.883148,541.747620 371.211060,545.118835 
	C366.205536,549.125122 361.207428,553.140869 356.160309,557.093994 
	C356.001373,557.218445 355.336884,556.697388 354.746002,556.204346 
	C354.696869,546.502747 354.676453,537.070068 354.963135,527.646729 
	C355.212433,519.452820 349.733093,512.265503 340.618896,508.954193 
	C332.750916,506.095703 324.849976,506.070160 316.502808,507.545227 
	C318.402130,505.998688 320.628143,504.893677 322.049286,504.188171 
	C319.139465,498.810516 316.064087,494.155579 314.033051,489.082550 
	C312.024536,484.065765 311.334442,478.536255 309.572815,473.400848 
	C308.091431,469.082520 308.483002,465.536987 311.361786,461.923706 
	C313.801758,458.861237 315.705872,455.371826 318.113770,451.660339 
	C316.781555,451.378082 315.895050,451.190247 315.008545,451.002441 
z"/>
<path fill="#D46836" opacity="1.000000" stroke="none" 
	d="
M371.524261,545.053528 
	C364.883148,541.747620 363.834930,535.390320 363.180939,529.377563 
	C361.657410,515.370361 353.801819,506.093201 341.685150,500.526154 
	C332.049194,496.098907 327.717987,488.395172 324.987671,479.023987 
	C324.385773,476.958038 323.733337,474.895874 322.932098,472.901093 
	C320.956787,467.983093 319.549408,463.226807 323.165405,458.292358 
	C327.234924,452.739105 332.994904,451.793976 338.782532,453.292297 
	C346.920166,455.399109 355.046692,458.021271 362.657867,461.546112 
	C369.269196,464.608002 372.720886,470.342529 373.143890,478.238831 
	C373.930664,492.925140 375.820251,507.550018 376.751312,522.232117 
	C377.153809,528.578613 376.315399,535.003845 376.056793,541.815552 
	C374.661133,543.154602 373.249298,544.071411 371.524261,545.053528 
M362.864105,515.730652 
	C365.221588,520.260559 367.579041,524.790466 370.499054,530.401306 
	C371.475830,528.240723 371.942810,527.682922 371.949249,527.119812 
	C372.010834,521.722412 372.102783,516.321716 371.978271,510.926727 
	C371.718262,499.659485 371.365814,488.393890 370.956329,477.131104 
	C370.903900,475.689484 370.486053,474.179169 369.896606,472.852112 
	C365.231720,462.349823 347.278656,454.658112 335.005981,457.832733 
	C330.031830,459.119415 329.014404,461.104279 330.821136,465.636597 
	C332.967804,471.021545 334.741699,476.571472 337.163300,481.825897 
	C339.682800,487.292786 342.114624,493.019104 345.791626,497.679901 
	C350.750702,503.965820 356.863373,509.341675 362.864105,515.730652 
z"/>
<path fill="#CF732C" opacity="1.000000" stroke="none" 
	d="
M386.514587,539.218384 
	C384.542725,531.132812 383.014862,523.048035 381.485901,514.963501 
	C380.658417,510.587830 379.829041,506.212494 379.383972,501.367828 
	C380.485870,500.099152 381.666107,499.387817 381.838531,498.484161 
	C382.419159,495.442017 382.600861,492.326111 383.009430,489.248260 
	C383.682281,484.179596 384.413208,479.118713 385.119629,474.054535 
	C386.095490,473.471741 387.071320,472.888947 388.047180,472.306183 
	C388.630310,473.851593 389.213440,475.397034 389.796570,476.942444 
	C392.359833,495.723724 398.579346,513.437134 405.606750,530.908569 
	C406.404236,532.891235 407.497192,534.755127 408.755737,536.858704 
	C409.005554,537.456665 408.952759,537.869934 408.594055,538.477966 
	C407.505371,538.636475 406.722595,538.600281 405.939819,538.564087 
	C399.612579,538.782471 393.285370,539.000916 386.514587,539.218384 
z"/>
<path fill="#581110" opacity="1.000000" stroke="none" 
	d="
M405.966675,538.956665 
	C406.722595,538.600281 407.505371,538.636475 408.573730,538.791382 
	C413.095428,539.714355 416.035248,541.972839 417.625641,546.117859 
	C422.917969,559.910950 428.500885,573.595276 433.612946,587.453796 
	C436.763275,595.994324 438.532043,605.158508 446.682953,611.013367 
	C446.426300,611.468567 446.169678,611.923767 445.913055,612.378967 
	C443.474609,611.614746 440.246185,611.580444 438.742249,609.952698 
	C433.752289,604.552124 427.565643,603.188049 420.738953,602.962830 
	C419.688660,602.928223 418.653870,602.423462 417.611908,602.136169 
	C417.634369,601.716858 417.656830,601.297607 417.679291,600.878296 
	C421.120514,600.878296 424.561737,600.878296 427.360229,600.878296 
	C423.848145,590.169739 420.482941,579.367126 416.677856,568.721802 
	C415.820923,566.324402 413.778351,563.183228 411.678955,562.616333 
	C405.363373,560.911011 406.335693,555.538025 405.554413,551.500244 
	C404.804260,547.623413 405.777588,543.413025 405.966675,538.956665 
z"/>
<path fill="#C7602B" opacity="1.000000" stroke="none" 
	d="
M314.703552,451.155945 
	C315.895050,451.190247 316.781555,451.378082 318.113770,451.660339 
	C315.705872,455.371826 313.801758,458.861237 311.361786,461.923706 
	C308.483002,465.536987 308.091431,469.082520 309.572815,473.400848 
	C311.334442,478.536255 312.024536,484.065765 314.033051,489.082550 
	C316.064087,494.155579 319.139465,498.810516 322.049286,504.188171 
	C320.628143,504.893677 318.402130,505.998688 316.099365,507.441620 
	C308.793182,503.717255 301.563782,499.654968 294.190247,495.286438 
	C297.556061,493.961121 296.858124,491.114838 297.022400,488.488892 
	C297.593231,479.361938 298.383575,470.248627 298.944855,461.121185 
	C299.158997,457.638977 298.979706,454.132568 298.979706,450.415253 
	C299.383881,450.747772 299.936371,451.202301 300.752380,451.822327 
	C301.015930,451.987823 301.003967,451.996735 301.008728,452.348511 
	C301.677124,453.469086 302.340729,454.237915 303.004303,455.006744 
	C303.499603,455.893036 303.994904,456.779327 304.745117,457.830078 
	C308.132843,455.766205 311.265686,453.537842 314.703552,451.155945 
z"/>
<path fill="#CF732C" opacity="1.000000" stroke="none" 
	d="
M284.631775,438.978058 
	C281.611145,450.255585 288.928497,458.585419 293.368134,467.807556 
	C294.175140,469.483917 293.945709,471.659210 294.194733,473.604187 
	C292.171753,472.978699 290.148743,472.353210 288.412476,471.402802 
	C289.708862,471.223236 290.718567,471.368591 293.269867,471.735901 
	C290.857117,468.063141 289.220764,465.515076 287.525391,463.006866 
	C285.713959,460.326996 283.846893,457.684723 282.004150,455.026031 
	C280.790802,449.450592 279.972076,443.932892 284.631775,438.978058 
z"/>
<path fill="#BC612E" opacity="1.000000" stroke="none" 
	d="
M281.742615,455.223358 
	C283.846893,457.684723 285.713959,460.326996 287.525391,463.006866 
	C289.220764,465.515076 290.857117,468.063141 293.269867,471.735901 
	C290.718567,471.368591 289.708862,471.223236 288.348633,471.037720 
	C287.998077,470.997559 288.000000,471.000000 287.848389,470.700012 
	C283.811798,467.604919 279.926788,464.809784 276.041779,462.014648 
	C277.854889,459.816650 279.667999,457.618652 281.742615,455.223358 
z"/>
<path fill="#CF732C" opacity="1.000000" stroke="none" 
	d="
M275.785583,462.181244 
	C279.926788,464.809784 283.811798,467.604919 287.849609,470.700806 
	C286.474945,470.624908 284.861481,470.446991 283.437744,469.830688 
	C280.386658,468.509979 277.433563,466.962830 274.203003,465.228058 
	C274.486908,464.081085 275.008179,463.214478 275.785583,462.181244 
z"/>
<path fill="#EE952D" opacity="1.000000" stroke="none" 
	d="
M437.642944,228.402161 
	C437.128174,228.719528 436.375458,228.769394 435.622711,228.819244 
	C435.617432,228.591049 435.612183,228.362839 435.606903,228.134644 
	C436.206268,228.134644 436.805634,228.134644 437.642944,228.402161 
z"/>
<path fill="#EE952D" opacity="1.000000" stroke="none" 
	d="
M439.523743,230.336121 
	C439.186737,230.110229 439.084808,229.741623 438.982880,229.373016 
	C439.264771,229.364914 439.546692,229.356812 439.996399,229.585205 
	C440.029114,229.945602 439.893982,230.069504 439.523743,230.336121 
z"/>
<path fill="#CF7634" opacity="1.000000" stroke="none" 
	d="
M389.855804,476.546051 
	C389.213440,475.397034 388.630310,473.851593 388.047180,472.306183 
	C387.071320,472.888947 386.095490,473.471741 385.119629,474.054535 
	C384.413208,479.118713 383.682281,484.179596 383.009430,489.248260 
	C382.600861,492.326111 382.419159,495.442017 381.838531,498.484161 
	C381.666107,499.387817 380.485870,500.099152 379.384949,500.948090 
	C378.160950,496.984344 377.201904,492.990417 376.537842,488.948059 
	C376.284821,487.407745 376.082947,485.207703 376.926575,484.245300 
	C382.014252,478.441437 378.204620,472.964447 376.149139,467.839020 
	C374.815369,464.513123 371.927124,461.468567 369.029114,459.200256 
	C365.556519,456.482208 361.332001,454.724854 357.216003,452.287476 
	C359.082886,448.687531 357.331482,446.124146 355.151428,443.301575 
	C355.012115,442.779022 355.026825,442.571075 355.075256,442.052124 
	C356.182983,442.076599 357.470398,442.140076 358.298035,442.789551 
	C366.892883,449.533997 375.591553,456.166931 383.851349,463.305359 
	C386.476654,465.574158 387.879120,469.257965 389.973511,472.618469 
	C390.042267,474.011658 389.978668,475.080658 389.855804,476.546051 
z"/>
<path fill="#FEFAFB" opacity="1.000000" stroke="none" 
	d="
M188.897491,391.323120 
	C187.209763,390.630310 185.068970,390.135712 184.863785,389.211426 
	C183.249344,381.938599 182.004974,374.583618 180.668289,367.370850 
	C188.088287,364.188751 188.001053,364.247894 191.897064,369.994446 
	C197.393204,378.101166 204.618988,383.121063 214.934021,382.016754 
	C218.405731,381.645111 221.654495,380.561310 222.243698,376.486237 
	C222.812134,372.554718 219.969772,370.745544 216.921005,369.618347 
	C212.252106,367.892181 207.410721,366.636963 202.717743,364.970154 
	C198.658051,363.528259 194.499023,362.165558 190.740158,360.114838 
	C179.644714,354.061584 178.788300,339.208862 189.187149,331.948273 
	C199.009674,325.090118 209.417847,325.406128 219.107788,330.190491 
	C222.398346,329.096741 225.117218,328.193024 228.485870,327.073303 
	C230.511185,334.856598 232.322708,341.818237 234.117340,348.714996 
	C226.614166,352.089386 226.599045,352.101013 222.181854,346.360657 
	C217.904373,340.801880 212.484741,337.292572 205.316864,337.023590 
	C201.684341,336.887238 197.722321,337.272736 196.736450,341.369537 
	C195.685959,345.734955 199.501846,347.460419 202.808075,348.603333 
	C209.244827,350.828430 215.860504,352.534637 222.303696,354.742859 
	C228.861359,356.990265 234.234268,360.696594 236.063385,367.961395 
	C238.914795,379.286316 230.469803,390.158020 217.389206,392.019012 
	C209.020615,393.209625 203.881241,392.183990 194.781342,387.627808 
	C192.844559,388.943085 191.092880,390.132660 188.897491,391.323120 
z"/>
<path fill="#FEF4F4" opacity="1.000000" stroke="none" 
	d="
M317.954285,384.704590 
	C311.439911,401.443665 296.775604,411.399902 278.465088,411.515381 
	C261.655334,411.621429 246.738525,402.560394 241.186340,387.855804 
	C234.997879,371.466034 237.111938,355.796967 248.830887,342.524780 
	C260.467743,329.345520 275.715027,325.791840 292.509247,329.668884 
	C305.300507,332.621826 312.970062,342.107727 314.663635,355.535278 
	C316.270752,368.277527 309.733154,382.536591 299.518188,388.139221 
	C297.220123,389.399628 294.655640,390.443359 292.091339,390.901642 
	C282.272644,392.656219 278.935120,390.094147 277.883881,380.403015 
	C275.329895,383.212860 273.190491,386.612213 270.133698,388.602356 
	C267.638763,390.226685 263.484772,391.492493 261.101685,390.480103 
	C258.742035,389.477722 256.350159,385.463409 256.268982,382.702728 
	C255.845490,368.295868 261.970276,356.941528 274.210236,349.209412 
	C279.005096,346.180359 282.299652,347.232910 286.084808,352.289185 
	C288.718353,346.371826 293.846527,350.324402 298.739960,348.180084 
	C296.845428,354.911652 295.307465,360.420837 293.742828,365.922455 
	C292.287476,371.039917 290.572388,376.099579 289.457336,381.289032 
	C289.064697,383.116241 289.469543,386.094147 290.677582,387.014557 
	C291.922424,387.963043 294.841003,387.617920 296.592590,386.848816 
	C306.511200,382.493713 312.721985,370.286774 311.997314,357.211151 
	C311.383514,346.135468 304.261902,336.512848 294.068695,332.986389 
	C277.946350,327.408691 259.068573,334.358978 249.704514,349.320190 
	C239.451355,365.701874 240.811569,386.663177 252.915588,398.804382 
	C270.174866,416.116608 302.334808,410.435822 313.890930,388.100067 
	C314.697662,386.540863 316.233337,385.358856 317.727356,384.306335 
	C318.024689,384.611237 317.954285,384.704590 317.954285,384.704590 
M281.355377,368.674896 
	C282.133942,363.996307 283.092987,359.335449 283.555359,354.625793 
	C283.661591,353.543427 282.255371,351.615662 281.192627,351.312286 
	C280.140167,351.011841 278.154846,351.910461 277.417023,352.905060 
	C271.668549,360.654175 268.367462,369.385590 267.992981,379.069244 
	C267.945923,380.285583 268.896362,381.977020 269.911713,382.635101 
	C270.525879,383.033142 272.628662,382.203735 273.247498,381.341095 
	C276.019531,377.476898 278.498932,373.402771 281.355377,368.674896 
z"/>
<path fill="#FEFAFA" opacity="1.000000" stroke="none" 
	d="
M423.045166,345.911011 
	C427.833221,345.907715 432.127197,345.907715 436.970551,345.907715 
	C436.970551,355.838104 437.212189,365.618378 436.870300,375.378265 
	C436.695068,380.380493 437.478882,383.684906 443.624420,382.728607 
	C443.624420,385.583344 443.624420,388.036560 443.624420,391.213745 
	C437.275299,391.213745 430.908051,391.213745 424.118225,391.213745 
	C424.016846,390.393402 423.842773,388.985138 423.637817,387.326874 
	C422.993683,387.542419 422.410980,387.764771 421.813080,387.933228 
	C416.634033,389.392548 411.485352,391.886169 406.263580,392.051849 
	C398.277924,392.305206 393.757599,387.278748 393.335236,379.250946 
	C393.029633,373.441589 393.027527,367.597382 393.267639,361.784302 
	C393.457642,357.183655 392.905334,353.708862 386.809265,354.788361 
	C386.809265,351.837067 386.809265,349.229126 386.809265,346.165833 
	C393.623932,346.165833 400.356628,346.165833 407.895386,346.165833 
	C407.895386,351.836395 407.888031,357.742310 407.897766,363.648254 
	C407.905182,368.141357 407.912140,372.634613 407.960907,377.127350 
	C407.998657,380.607391 410.043488,381.739563 413.212463,381.482056 
	C419.122620,381.001862 422.224823,377.632324 422.226440,371.686798 
	C422.227386,368.191986 422.022095,364.682373 422.275574,361.206116 
	C422.599609,356.762360 421.451050,353.967712 415.995300,354.893951 
	C415.995300,351.940765 415.995300,349.347076 415.995300,345.914307 
	C418.074432,345.914307 420.312744,345.914307 423.045166,345.911011 
z"/>
<path fill="#FEFAFA" opacity="1.000000" stroke="none" 
	d="
M352.649536,354.300598 
	C352.558472,351.413025 352.558472,348.943024 352.558472,346.242126 
	C354.847015,346.079712 356.770294,345.943207 358.903809,345.791809 
	C359.005707,345.014008 359.145294,344.392426 359.160370,343.767822 
	C359.520447,328.899139 372.023834,320.526947 386.099548,325.819916 
	C387.769867,326.447968 389.432953,327.416260 390.743164,328.615906 
	C393.687256,331.311554 394.533630,334.748138 391.887054,337.935791 
	C389.214844,341.154327 385.776398,340.680756 382.478760,338.483551 
	C380.389343,337.091339 378.254486,335.767395 376.140015,334.412811 
	C375.386627,337.317291 374.585144,340.210693 373.912964,343.133850 
	C373.740753,343.882751 373.976959,344.725555 374.048950,345.910339 
	C376.356750,345.910339 378.449890,345.910339 380.817871,345.910339 
	C380.817871,349.223053 380.817871,352.139496 380.817871,355.403046 
	C378.692688,355.568512 376.584930,355.732605 373.942261,355.938354 
	C373.942261,363.894379 373.647736,371.866638 374.205017,379.778900 
	C374.309296,381.259705 377.823883,382.500305 380.475616,384.346832 
	C380.475616,385.620392 380.475616,388.066040 380.475616,391.389893 
	C375.905914,391.389893 371.336243,391.389923 366.766541,391.389923 
	C362.283905,391.389923 357.801300,391.389893 352.917053,391.389893 
	C352.917053,388.568420 352.917053,386.004456 352.917053,383.371002 
	C359.171143,381.495758 359.173706,381.495758 359.177826,374.580841 
	C359.181458,368.446747 359.178558,362.312622 359.178558,356.377472 
	C356.720276,355.743866 354.730438,355.231018 352.649536,354.300598 
z"/>
<path fill="#FEFAFA" opacity="1.000000" stroke="none" 
	d="
M556.265503,382.822357 
	C550.803650,391.812622 540.084167,394.894531 529.801880,390.747955 
	C528.123291,390.071075 527.012451,388.948975 524.717834,390.778320 
	C522.700989,392.386230 519.028564,392.561096 517.785950,388.231781 
	C516.693726,384.426666 515.071228,380.773743 513.487610,376.530060 
	C516.350647,375.281555 518.999268,374.126526 521.773376,372.916779 
	C523.008484,374.315338 523.882141,375.878784 525.213440,376.703644 
	C529.095093,379.108795 532.992004,381.681702 537.234436,383.218384 
	C538.951233,383.840179 541.578796,381.947693 543.791870,381.199371 
	C542.226929,379.599304 540.943054,377.380219 539.043274,376.517548 
	C533.767273,374.121674 528.144653,372.496765 522.830566,370.174652 
	C517.937134,368.036346 514.766052,364.401703 514.929260,358.607086 
	C515.089417,352.922577 518.358215,349.381012 523.067139,347.010132 
	C528.724548,344.161774 534.625671,344.373566 540.536499,346.276886 
	C541.622498,346.626587 542.691528,347.416534 543.750183,347.385345 
	C546.206604,347.312988 549.322510,345.825928 550.914429,346.855469 
	C552.530457,347.900574 552.666809,351.269318 553.395813,353.637512 
	C553.875061,355.194397 554.256287,356.781494 554.745667,358.592743 
	C551.990051,359.746185 549.409485,360.826385 546.987244,361.840271 
	C544.329529,359.644165 541.989441,357.241913 539.208313,355.575714 
	C537.324097,354.446838 534.818848,353.934814 532.593872,353.941986 
	C531.109863,353.946747 529.630432,355.350342 528.148926,356.127899 
	C529.207642,357.241608 530.065857,358.807678 531.363281,359.382660 
	C534.997009,360.993011 538.821228,362.169830 542.552307,363.565765 
	C544.728088,364.379852 546.933411,365.155518 549.014648,366.174591 
	C556.434021,369.807526 558.301270,374.000336 556.265503,382.822357 
z"/>
<path fill="#FEFAFB" opacity="1.000000" stroke="none" 
	d="
M450.240845,390.832245 
	C449.877441,388.046631 449.877441,385.589264 449.877441,382.820953 
	C455.882782,383.540680 456.550537,380.164429 456.320679,375.546967 
	C456.032593,369.760315 456.251343,363.948395 456.251343,357.895050 
	C453.958618,357.617554 452.048828,357.386414 449.925049,357.129395 
	C449.925049,354.366364 449.925049,351.762085 449.925049,349.069000 
	C456.299377,347.524811 462.479279,346.027710 468.990936,344.450256 
	C469.148224,346.929932 469.250397,348.541046 469.377716,350.548218 
	C472.016357,348.866730 474.309265,346.979523 476.925385,345.823883 
	C483.050018,343.118439 488.932922,347.164215 488.473572,353.522766 
	C488.110992,358.542572 484.359161,361.073120 478.835876,360.023346 
	C471.090942,358.551361 470.928833,358.683350 470.927460,366.467041 
	C470.926971,369.131866 470.926605,371.796661 470.927612,374.461487 
	C470.930298,381.656403 470.930634,381.656403 477.573975,383.328979 
	C477.573975,385.743347 477.573975,388.188660 477.573975,391.160492 
	C468.451843,391.160492 459.528076,391.160492 450.240845,390.832245 
z"/>
<path fill="#FFFFFF" opacity="1.000000" stroke="none" 
	d="
M318.343750,384.922821 
	C317.954285,384.704590 318.024689,384.611237 318.019043,384.553040 
	C318.591888,383.931671 319.220398,382.836884 319.741302,382.885864 
	C326.371185,383.509888 325.800446,379.048126 325.727875,374.757172 
	C325.635040,369.268219 325.705322,363.776489 325.705322,357.853668 
	C323.448944,357.589417 321.389801,357.348267 319.144348,357.085297 
	C319.144348,354.493408 319.144348,352.036987 319.144348,349.479950 
	C325.953033,347.875946 332.736664,346.277832 340.068207,344.550659 
	C340.068207,355.447235 340.291718,365.588959 339.971985,375.713501 
	C339.816864,380.624725 340.804352,383.608215 346.706146,382.677368 
	C346.706146,385.514526 346.706146,388.083862 346.706146,390.987518 
	C337.621918,390.987518 328.566711,390.987518 319.207123,390.987518 
	C319.047394,389.016663 318.890320,387.078857 318.343750,384.922821 
z"/>
<path fill="#FEFAFB" opacity="1.000000" stroke="none" 
	d="
M340.734131,335.354614 
	C338.786987,339.975159 335.359100,342.281036 331.109467,340.818848 
	C328.587616,339.951111 325.473450,337.079712 325.091644,334.711609 
	C324.666504,332.074646 326.317932,328.122345 328.420959,326.362610 
	C330.163025,324.904938 334.179932,324.958160 336.643738,325.849365 
	C340.493835,327.242096 341.519928,330.959381 340.734131,335.354614 
z"/>
<path fill="#FEF4F4" opacity="1.000000" stroke="none" 
	d="
M504.930115,334.960388 
	C503.973633,340.104980 503.174835,344.852600 502.048157,349.521088 
	C501.741211,350.792999 500.447021,351.826630 499.605865,352.969604 
	C498.817871,351.915009 497.576385,350.959076 497.321564,349.788422 
	C496.299927,345.094482 495.485809,340.348511 494.782257,335.594055 
	C494.051056,330.652557 495.829254,327.359955 499.188995,326.963898 
	C502.601013,326.561676 504.592987,329.172516 504.930115,334.960388 
z"/>
<path fill="#2A2524" opacity="1.000000" stroke="none" 
	d="
M386.306458,281.731750 
	C388.046021,285.173218 388.046021,285.173218 382.934479,290.070374 
	C381.713379,289.329285 380.379486,288.519806 377.967163,287.055817 
	C381.083313,284.905701 383.568542,283.190918 386.306458,281.731750 
z"/>
<path fill="#2A2524" opacity="1.000000" stroke="none" 
	d="
M394.297363,274.575562 
	C395.371307,272.367767 396.665100,270.453247 397.958862,268.538727 
	C398.540375,268.642975 399.121857,268.747223 399.703369,268.851440 
	C399.782776,270.233154 400.431671,271.996307 399.817383,272.913361 
	C398.704437,274.574799 397.388000,277.323639 394.297363,274.575562 
z"/>
<path fill="#E82C2F" opacity="1.000000" stroke="none" 
	d="
M540.390320,180.657349 
	C540.031006,180.120773 540.031494,179.732742 540.229126,179.082367 
	C541.414246,178.224243 542.402283,177.628433 543.390259,177.032639 
	C543.603699,177.307053 543.817078,177.581482 544.030518,177.855896 
	C542.937073,178.839233 541.843567,179.822571 540.390320,180.657349 
z"/>
<path fill="#BC612E" opacity="1.000000" stroke="none" 
	d="
M302.978119,454.685242 
	C302.340729,454.237915 301.677124,453.469086 301.015381,452.344574 
	C301.662140,452.780518 302.307037,453.572144 302.978119,454.685242 
z"/>
<path fill="#D66B3A" opacity="1.000000" stroke="none" 
	d="
M362.672546,515.419312 
	C356.863373,509.341675 350.750702,503.965820 345.791626,497.679901 
	C342.114624,493.019104 339.682800,487.292786 337.163300,481.825897 
	C334.741699,476.571472 332.967804,471.021545 330.821136,465.636597 
	C329.014404,461.104279 330.031830,459.119415 335.005981,457.832733 
	C347.278656,454.658112 365.231720,462.349823 369.896606,472.852112 
	C370.486053,474.179169 370.903900,475.689484 370.956329,477.131104 
	C371.365814,488.393890 371.718262,499.659485 371.978271,510.926727 
	C372.102783,516.321716 372.010834,521.722412 371.949249,527.119812 
	C371.942810,527.682922 371.475830,528.240723 370.499054,530.401306 
	C367.579041,524.790466 365.221588,520.260559 362.672546,515.419312 
M349.871857,485.712006 
	C352.595337,493.142914 354.533630,500.978485 361.512543,506.027771 
	C365.395935,508.837372 367.445648,508.546936 367.885132,503.920258 
	C368.680817,495.543610 369.243835,487.056580 368.745514,478.684570 
	C368.515564,474.821869 366.404694,470.260712 363.645325,467.537354 
	C358.765961,462.721588 352.038483,461.502289 345.168518,462.031738 
	C342.222839,462.258789 341.468170,464.090607 342.380615,466.557281 
	C344.670410,472.747314 347.126038,478.876007 349.871857,485.712006 
z"/>
<path fill="#E82C2F" opacity="1.000000" stroke="none" 
	d="
M281.219666,369.039673 
	C278.498932,373.402771 276.019531,377.476898 273.247498,381.341095 
	C272.628662,382.203735 270.525879,383.033142 269.911713,382.635101 
	C268.896362,381.977020 267.945923,380.285583 267.992981,379.069244 
	C268.367462,369.385590 271.668549,360.654175 277.417023,352.905060 
	C278.154846,351.910461 280.140167,351.011841 281.192627,351.312286 
	C282.255371,351.615662 283.661591,353.543427 283.555359,354.625793 
	C283.092987,359.335449 282.133942,363.996307 281.219666,369.039673 
z"/>
<path fill="#D86F3F" opacity="1.000000" stroke="none" 
	d="
M349.693512,485.370667 
	C347.126038,478.876007 344.670410,472.747314 342.380615,466.557281 
	C341.468170,464.090607 342.222839,462.258789 345.168518,462.031738 
	C352.038483,461.502289 358.765961,462.721588 363.645325,467.537354 
	C366.404694,470.260712 368.515564,474.821869 368.745514,478.684570 
	C369.243835,487.056580 368.680817,495.543610 367.885132,503.920258 
	C367.445648,508.546936 365.395935,508.837372 361.512543,506.027771 
	C354.533630,500.978485 352.595337,493.142914 349.693512,485.370667 
z"/>
</svg>